<svg xmlns="http://www.w3.org/2000/svg" width="32" height="32" viewBox="0 0 32 32"><defs><clipPath id="edzia"><path fill="#fff" d="M16 0c8.837 0 16 7.163 16 16s-7.163 16-16 16S0 24.837 0 16 7.163 0 16 0z"/></clipPath></defs><g><g><g><path fill="#fff" d="M16 0c8.837 0 16 7.163 16 16s-7.163 16-16 16S0 24.837 0 16 7.163 0 16 0z"/><path fill="none" stroke="#212120" stroke-miterlimit="20" stroke-width="2" d="M16 0c8.837 0 16 7.163 16 16s-7.163 16-16 16S0 24.837 0 16 7.163 0 16 0z" clip-path="url(&quot;#edzia&quot;)"/></g><g><g><path fill="#212120" d="M23.19 19.638a3.552 3.552 0 0 1-3.552 3.551h-7.276a3.552 3.552 0 0 1-3.551-3.551v-7.276a3.552 3.552 0 0 1 3.551-3.551h7.276a3.551 3.551 0 0 1 3.551 3.551zM19.637 7h-7.276A5.368 5.368 0 0 0 7 12.362v7.276A5.368 5.368 0 0 0 12.362 25h7.276A5.368 5.368 0 0 0 25 19.638v-7.276A5.368 5.368 0 0 0 19.638 7z"/></g><g><path fill="#212120" d="M16 18.837a2.837 2.837 0 1 1 0-5.674 2.837 2.837 0 0 1 0 5.674zm0-7.48A4.648 4.648 0 0 0 11.357 16 4.648 4.648 0 0 0 16 20.643 4.648 4.648 0 0 0 20.643 16 4.648 4.648 0 0 0 16 11.357z"/></g><g><path fill="#212120" d="M19.544 11.381a1.119 1.119 0 1 1 2.237 0 1.119 1.119 0 0 1-2.237 0z"/></g></g></g></g></svg>