<svg xmlns="http://www.w3.org/2000/svg" width="32" height="33" viewBox="0 0 32 33"><defs><clipPath id="7l8fa"><path fill="#fff" d="M16 .5c8.837 0 16 7.163 16 16s-7.163 16-16 16-16-7.163-16-16S7.163.5 16 .5z"/></clipPath></defs><g><g><g><g><path fill="#fff" d="M16 .5c8.837 0 16 7.163 16 16s-7.163 16-16 16-16-7.163-16-16S7.163.5 16 .5z"/><path fill="none" stroke="#212120" stroke-miterlimit="20" stroke-width="2" d="M16 .5c8.837 0 16 7.163 16 16s-7.163 16-16 16-16-7.163-16-16S7.163.5 16 .5z" clip-path="url(&quot;#7l8fa&quot;)"/></g></g><g><g/><g><path fill="#212120" d="M24.117 12.25a6.289 6.289 0 0 1-1.8.492 3.143 3.143 0 0 0 1.378-1.733 6.268 6.268 0 0 1-1.99.76 3.137 3.137 0 0 0-3.77-.622 3.13 3.13 0 0 0-1.572 3.478 8.903 8.903 0 0 1-6.46-3.272 3.13 3.13 0 0 0 .97 4.181 3.126 3.126 0 0 1-1.42-.391v.039a3.134 3.134 0 0 0 2.514 3.07 3.158 3.158 0 0 1-1.416.055 3.136 3.136 0 0 0 2.928 2.175 6.296 6.296 0 0 1-4.64 1.297c1.433.92 3.1 1.41 4.804 1.408 5.767 0 8.92-4.773 8.92-8.911 0-.135-.004-.271-.01-.405a6.365 6.365 0 0 0 1.564-1.62z"/></g></g></g></g></svg>