<?xml version="1.0" encoding="UTF-8"?>
<svg id="SVGDoc" width="18" height="14" xmlns="http://www.w3.org/2000/svg" version="1.1" xmlns:xlink="http://www.w3.org/1999/xlink" xmlns:avocode="https://avocode.com/" viewBox="0 0 18 14"><defs></defs><desc>Generated with Avocode.</desc><g><g><title>Group 2719</title><g><title>Path 3263</title><path d="M0.37492,1.09152c2.47067,2.08491 6.80592,5.7529 8.08011,6.89658c0.17105,0.15436 0.35451,0.23284 0.54497,0.23284c0.19007,0 0.37322,-0.07774 0.54388,-0.23137c1.27528,-1.14481 5.61053,-4.81315 8.08123,-6.89806c0.15382,-0.12955 0.17727,-0.35728 0.05274,-0.51567c-0.28789,-0.366 -0.71712,-0.57585 -1.17715,-0.57585h-15.00142c-0.45999,0 -0.88926,0.20985 -1.17711,0.5759c-0.12454,0.15834 -0.10108,0.38606 0.05274,0.51563z" fill="#212120" fill-opacity="1"></path></g><g><title>Path 3264</title><path d="M17.78249,2.22151c-0.13293,-0.06192 -0.2893,-0.04031 -0.3999,0.05424c-2.73966,2.32406 -6.23623,5.30302 -7.33634,6.29498c-0.61745,0.55777 -1.47438,0.55777 -2.09327,-0.00073c-1.1726,-1.05721 -5.09913,-4.39749 -7.33556,-6.29428c-0.11134,-0.09456 -0.26807,-0.11543 -0.3999,-0.05424c-0.13254,0.06159 -0.21751,0.19425 -0.21751,0.34046v9.43703c0,0.82787 0.67271,1.50102 1.50001,1.50102h15.00001c0.82726,0 1.49998,-0.67316 1.49998,-1.50102v-9.43702c0,-0.14622 -0.08497,-0.27923 -0.21751,-0.34044z" fill="#212120" fill-opacity="1"></path></g></g></g></svg>