<svg xmlns="http://www.w3.org/2000/svg" width="35" height="35" viewBox="0 0 35 35"><defs><clipPath id="mn05a"><path fill="#fff" d="M0 17.5C0 7.835 7.835 0 17.5 0S35 7.835 35 17.5 27.165 35 17.5 35 0 27.165 0 17.5z"/></clipPath></defs><g><g><g><path fill="none" stroke="#01fe87" stroke-miterlimit="20" stroke-width="2" d="M0 17.5C0 7.835 7.835 0 17.5 0S35 7.835 35 17.5 27.165 35 17.5 35 0 27.165 0 17.5z" clip-path="url(&quot;#mn05a&quot;)"/></g><g><g/><g><path fill="#01fe87" d="M19.233 19.124h1.88l.751-2.998h-2.631v-1.5c0-.771 0-1.499 1.504-1.499h1.127V10.61a21.24 21.24 0 0 0-2.148-.105c-2.041 0-3.49 1.242-3.49 3.523v2.099H13.97v2.998h2.255v6.372h3.008z"/></g></g></g></g></svg>