<svg xmlns="http://www.w3.org/2000/svg" width="35" height="35" viewBox="0 0 35 35"><defs><clipPath id="1xroa"><path fill="#fff" d="M0 17.5C0 7.835 7.835 0 17.5 0S35 7.835 35 17.5 27.165 35 17.5 35 0 27.165 0 17.5z"/></clipPath></defs><g><g><g><path fill="none" stroke="#01fe87" stroke-miterlimit="20" stroke-width="2" d="M0 17.5C0 7.835 7.835 0 17.5 0S35 7.835 35 17.5 27.165 35 17.5 35 0 27.165 0 17.5z" clip-path="url(&quot;#1xroa&quot;)"/></g><g><g><path fill="#01fe87" d="M27.067 27h.005v-6.546c0-3.202-.69-5.669-4.433-5.669-1.8 0-3.007.988-3.5 1.924h-.052v-1.625h-3.55V27h3.696v-5.9c0-1.553.295-3.055 2.218-3.055 1.896 0 1.924 1.773 1.924 3.155V27z"/></g><g><path fill="#01fe87" d="M9.366 15.085h3.7V27h-3.7z"/></g><g><path fill="#01fe87" d="M11.215 9c-1.183 0-2.143.96-2.143 2.143 0 1.183.96 2.163 2.143 2.163 1.183 0 2.143-.98 2.143-2.163 0-1.183-.96-2.143-2.143-2.143z"/></g></g></g></g></svg>