<svg xmlns="http://www.w3.org/2000/svg" width="18" height="14" viewBox="0 0 18 14"><g><g><g><g><g><path fill="#01fe87" d="M.375 1.167c2.47 2.085 6.806 5.753 8.08 6.897.171.154.355.233.545.233.19 0 .373-.078.544-.232 1.275-1.144 5.61-4.813 8.081-6.898a.373.373 0 0 0 .053-.515A1.491 1.491 0 0 0 16.5.076H1.499C1.04.076.61.286.322.652a.372.372 0 0 0 .053.515z"/></g><g><path fill="#01fe87" d="M17.782 2.297a.373.373 0 0 0-.4.055c-2.74 2.324-6.236 5.303-7.336 6.295-.617.557-1.474.557-2.093-.001C6.78 7.589 2.853 4.248.617 2.352A.375.375 0 0 0 0 2.638v9.437c0 .828.673 1.5 1.5 1.5h15c.827 0 1.5-.672 1.5-1.5V2.638a.375.375 0 0 0-.218-.34z"/></g></g></g></g></g></svg>