<?xml version="1.0" encoding="UTF-8"?>
<svg id="SVGDoc" width="18" height="18" xmlns="http://www.w3.org/2000/svg" version="1.1" xmlns:xlink="http://www.w3.org/1999/xlink" xmlns:avocode="https://avocode.com/" viewBox="0 0 18 18"><defs></defs><desc>Generated with Avocode.</desc><g><g><title>Group 2721</title><g><title>Path 3265</title><path d="M17.52797,13.23798v0l-2.51724,-2.51724c-0.89901,-0.89901 -2.42734,-0.53937 -2.78694,0.62931c-0.2697,0.80915 -1.16872,1.25865 -1.97783,1.07882c-1.79803,-0.44951 -4.22536,-2.78694 -4.67487,-4.67487c-0.2697,-0.80915 0.2697,-1.70816 1.07882,-1.97783c1.16872,-0.35961 1.52832,-1.88793 0.62931,-2.78694l-2.51724,-2.51724c-0.71921,-0.62931 -1.79803,-0.62931 -2.42734,0l-1.70813,1.70813c-1.70813,1.79803 0.1798,6.5628 4.40517,10.78817c4.22536,4.22537 8.99014,6.20323 10.78817,4.40517l1.70813,-1.70813c0.62934,-0.71921 0.62934,-1.79803 0,-2.42734z" fill="#212120" fill-opacity="1"></path></g></g></g></svg>