<svg xmlns="http://www.w3.org/2000/svg" width="32" height="32" viewBox="0 0 32 32"><defs><clipPath id="rufxa"><path fill="#fff" d="M0 16C0 7.163 7.163 0 16 0s16 7.163 16 16-7.163 16-16 16S0 24.837 0 16z"/></clipPath></defs><g><g><g><path fill="#fff" d="M0 16C0 7.163 7.163 0 16 0s16 7.163 16 16-7.163 16-16 16S0 24.837 0 16z"/><path fill="none" stroke="#212120" stroke-miterlimit="20" stroke-width="2" d="M0 16C0 7.163 7.163 0 16 0s16 7.163 16 16-7.163 16-16 16S0 24.837 0 16z" clip-path="url(&quot;#rufxa&quot;)"/></g><g><g/><g><path fill="#212120" d="M17.233 17.124h1.88l.751-2.998h-2.631v-1.5c0-.771 0-1.499 1.504-1.499h1.127V8.61a21.24 21.24 0 0 0-2.148-.105c-2.041 0-3.49 1.242-3.49 3.523v2.099H11.97v2.998h2.255v6.372h3.008z"/></g></g></g></g></svg>