<svg xmlns="http://www.w3.org/2000/svg" width="35" height="35" viewBox="0 0 35 35"><defs><clipPath id="wtg7a"><path fill="#fff" d="M17.5 0C27.165 0 35 7.835 35 17.5S27.165 35 17.5 35 0 27.165 0 17.5 7.835 0 17.5 0z"/></clipPath></defs><g><g><g><path fill="none" stroke="#01fe87" stroke-miterlimit="20" stroke-width="2" d="M17.5 0C27.165 0 35 7.835 35 17.5S27.165 35 17.5 35 0 27.165 0 17.5 7.835 0 17.5 0z" clip-path="url(&quot;#wtg7a&quot;)"/></g><g><g><path fill="#01fe87" d="M25.19 21.638a3.552 3.552 0 0 1-3.552 3.551h-7.276a3.552 3.552 0 0 1-3.551-3.551v-7.276a3.552 3.552 0 0 1 3.551-3.551h7.276a3.551 3.551 0 0 1 3.551 3.551zM21.637 9h-7.276A5.368 5.368 0 0 0 9 14.362v7.276A5.368 5.368 0 0 0 14.362 27h7.276A5.368 5.368 0 0 0 27 21.638v-7.276A5.368 5.368 0 0 0 21.638 9z"/></g><g><path fill="#01fe87" d="M18 20.837a2.837 2.837 0 1 1 0-5.674 2.837 2.837 0 0 1 0 5.674zm0-7.48A4.648 4.648 0 0 0 13.357 18 4.648 4.648 0 0 0 18 22.643 4.648 4.648 0 0 0 22.643 18 4.648 4.648 0 0 0 18 13.357z"/></g><g><path fill="#01fe87" d="M21.544 13.381a1.119 1.119 0 1 1 2.237 0 1.119 1.119 0 0 1-2.237 0z"/></g></g></g></g></svg>