<svg xmlns="http://www.w3.org/2000/svg" width="32" height="32" viewBox="0 0 32 32"><defs><clipPath id="lx4qa"><path fill="#fff" d="M0 16C0 7.163 7.163 0 16 0s16 7.163 16 16-7.163 16-16 16S0 24.837 0 16z"/></clipPath></defs><g><g><g><path fill="#fff" d="M0 16C0 7.163 7.163 0 16 0s16 7.163 16 16-7.163 16-16 16S0 24.837 0 16z"/><path fill="none" stroke="#212120" stroke-miterlimit="20" stroke-width="2" d="M0 16C0 7.163 7.163 0 16 0s16 7.163 16 16-7.163 16-16 16S0 24.837 0 16z" clip-path="url(&quot;#lx4qa&quot;)"/></g><g><g><path d="M25.067 25h.005v-6.546c0-3.202-.69-5.669-4.433-5.669-1.8 0-3.007.988-3.5 1.924h-.052v-1.625h-3.55V25h3.696v-5.9c0-1.553.295-3.055 2.218-3.055 1.896 0 1.924 1.773 1.924 3.155V25z"/></g><g><path d="M7.366 13.085h3.7V25h-3.7z"/></g><g><path d="M9.215 7c-1.183 0-2.143.96-2.143 2.143 0 1.183.96 2.163 2.143 2.163 1.183 0 2.143-.98 2.143-2.163C11.358 7.96 10.398 7 9.215 7z"/></g></g></g></g></svg>